<?xml version="1.0" encoding="UTF-8"?>
<svg xmlns="http://www.w3.org/2000/svg" xmlns:xlink="http://www.w3.org/1999/xlink" width="400pt" height="285pt" viewBox="0 0 400 285" version="1.1">
<g id="surface1">
<path style=" stroke:none;fill-rule:nonzero;fill:rgb(94.901961%,94.901961%,94.901961%);fill-opacity:1;" d="M 397.550781 264.730469 C 397.460938 264.972656 397.191406 265.097656 396.949219 265.007812 L 23.171875 125.757812 C 22.929688 125.664062 22.804688 125.394531 22.898438 125.152344 C 22.984375 124.90625 23.257812 124.78125 23.5 124.871094 L 397.273438 264.125 C 397.515625 264.21875 397.640625 264.488281 397.550781 264.730469 Z M 397.550781 264.730469 "/>
<path style=" stroke:none;fill-rule:nonzero;fill:rgb(24.705882%,23.921569%,33.72549%);fill-opacity:1;" d="M 198.445312 0 L 109.378906 0 C 94.832031 0.015625 83.042969 11.820312 83.027344 26.386719 L 83.027344 34.445312 C 82.65625 34.34375 82.257812 34.417969 81.953125 34.65625 C 81.652344 34.890625 81.472656 35.257812 81.480469 35.640625 L 81.480469 41.839844 C 81.472656 42.222656 81.652344 42.589844 81.953125 42.824219 C 82.257812 43.058594 82.65625 43.136719 83.027344 43.035156 L 83.027344 52.417969 C 82.65625 52.320312 82.257812 52.394531 81.953125 52.632812 C 81.652344 52.867188 81.472656 53.230469 81.480469 53.617188 L 81.480469 69.113281 C 81.472656 69.496094 81.652344 69.859375 81.953125 70.097656 C 82.257812 70.332031 82.65625 70.410156 83.027344 70.308594 L 83.027344 75.972656 C 82.65625 75.871094 82.257812 75.949219 81.953125 76.183594 C 81.652344 76.421875 81.472656 76.785156 81.480469 77.171875 L 81.480469 92.664062 C 81.472656 93.050781 81.652344 93.414062 81.953125 93.652344 C 82.257812 93.886719 82.65625 93.964844 83.027344 93.863281 L 83.027344 257.5 C 83.042969 272.0625 94.832031 283.867188 109.378906 283.882812 L 198.445312 283.882812 C 212.992188 283.867188 224.78125 272.0625 224.796875 257.5 L 224.796875 26.386719 C 224.78125 11.820312 212.992188 0.015625 198.445312 0 Z M 219.226562 257.5 C 219.210938 268.984375 209.917969 278.292969 198.445312 278.304688 L 109.378906 278.304688 C 97.910156 278.292969 88.613281 268.984375 88.597656 257.5 L 88.597656 26.386719 C 88.613281 14.898438 97.910156 5.589844 109.378906 5.578125 L 198.445312 5.578125 C 209.917969 5.589844 219.210938 14.898438 219.226562 26.386719 Z M 219.226562 257.5 "/>
<path style=" stroke:none;fill-rule:nonzero;fill:rgb(90.196078%,90.196078%,90.196078%);fill-opacity:1;" d="M 198.445312 281.402344 L 109.378906 281.402344 C 96.199219 281.390625 85.519531 270.695312 85.503906 257.5 L 85.503906 26.386719 C 85.519531 13.1875 96.199219 2.496094 109.378906 2.480469 L 198.445312 2.480469 C 211.625 2.496094 222.304688 13.1875 222.320312 26.386719 L 222.320312 257.5 C 222.304688 270.695312 211.625 281.390625 198.445312 281.402344 Z M 198.445312 281.402344 "/>
<path style=" stroke:none;fill-rule:nonzero;fill:rgb(100%,100%,100%);fill-opacity:1;" d="M 200.644531 277.6875 L 107.179688 277.6875 C 98.289062 277.675781 91.085938 270.464844 91.074219 261.5625 L 91.074219 22.320312 C 91.085938 13.421875 98.289062 6.207031 107.179688 6.199219 L 119.367188 6.199219 C 120.835938 6.199219 122.027344 7.394531 122.03125 8.863281 C 122.035156 13.210938 125.550781 16.730469 129.890625 16.734375 L 176.695312 16.734375 C 181.035156 16.730469 184.550781 13.210938 184.558594 8.863281 C 184.558594 7.394531 185.75 6.199219 187.21875 6.199219 L 200.644531 6.199219 C 209.535156 6.207031 216.738281 13.421875 216.75 22.320312 L 216.75 261.5625 C 216.738281 270.464844 209.535156 277.675781 200.644531 277.6875 Z M 200.644531 277.6875 "/>
<path style=" stroke:none;fill-rule:nonzero;fill:rgb(100%,100%,100%);fill-opacity:1;" d="M 157.9375 11.621094 L 146.792969 11.621094 C 146.109375 11.621094 145.554688 11.066406 145.554688 10.382812 C 145.554688 9.699219 146.109375 9.144531 146.792969 9.144531 L 157.9375 9.144531 C 158.621094 9.144531 159.171875 9.699219 159.171875 10.382812 C 159.171875 11.066406 158.621094 11.621094 157.9375 11.621094 Z M 157.9375 11.621094 "/>
<path style=" stroke:none;fill-rule:nonzero;fill:rgb(100%,100%,100%);fill-opacity:1;" d="M 166.292969 10.691406 C 166.292969 11.035156 166.015625 11.3125 165.675781 11.3125 C 165.332031 11.3125 165.054688 11.035156 165.054688 10.691406 C 165.054688 10.347656 165.332031 10.074219 165.675781 10.074219 C 166.015625 10.074219 166.292969 10.347656 166.292969 10.691406 Z M 166.292969 10.691406 "/>
<path style=" stroke:none;fill-rule:nonzero;fill:rgb(90.196078%,90.196078%,90.196078%);fill-opacity:1;" d="M 87.941406 54.621094 L 219.757812 54.621094 L 219.757812 56.035156 L 87.941406 56.035156 Z M 87.941406 54.621094 "/>
<path style=" stroke:none;fill-rule:nonzero;fill:rgb(90.196078%,90.196078%,90.196078%);fill-opacity:1;" d="M 87.941406 82.875 L 219.757812 82.875 L 219.757812 84.285156 L 87.941406 84.285156 Z M 87.941406 82.875 "/>
<path style=" stroke:none;fill-rule:nonzero;fill:rgb(90.196078%,90.196078%,90.196078%);fill-opacity:1;" d="M 87.941406 141.261719 L 219.757812 141.261719 L 219.757812 142.675781 L 87.941406 142.675781 Z M 87.941406 141.261719 "/>
<path style=" stroke:none;fill-rule:nonzero;fill:rgb(90.196078%,90.196078%,90.196078%);fill-opacity:1;" d="M 87.941406 199.648438 L 219.757812 199.648438 L 219.757812 201.0625 L 87.941406 201.0625 Z M 87.941406 199.648438 "/>
<path style=" stroke:none;fill-rule:nonzero;fill:rgb(90.196078%,90.196078%,90.196078%);fill-opacity:1;" d="M 87.941406 245.324219 L 219.757812 245.324219 L 219.757812 246.738281 L 87.941406 246.738281 Z M 87.941406 245.324219 "/>
<path style=" stroke:none;fill-rule:nonzero;fill:rgb(90.196078%,90.196078%,90.196078%);fill-opacity:1;" d="M 182.261719 55.328125 L 183.671875 55.328125 L 183.671875 141.96875 L 182.261719 141.96875 Z M 182.261719 55.328125 "/>
<path style=" stroke:none;fill-rule:nonzero;fill:rgb(90.196078%,90.196078%,90.196078%);fill-opacity:1;" d="M 116.269531 141.941406 L 117.683594 141.941406 L 117.683594 246.03125 L 116.269531 246.03125 Z M 116.269531 141.941406 "/>
<path style=" stroke:none;fill-rule:nonzero;fill:rgb(90.196078%,90.196078%,90.196078%);fill-opacity:1;" d="M 116.976562 170.492188 L 216.75 170.492188 L 216.75 171.90625 L 116.976562 171.90625 Z M 116.976562 170.492188 "/>
<path style=" stroke:none;fill-rule:nonzero;fill:rgb(90.196078%,90.196078%,90.196078%);fill-opacity:1;" d="M 182.410156 246.03125 L 183.820312 246.03125 L 183.820312 277.6875 L 182.410156 277.6875 Z M 182.410156 246.03125 "/>
<path style=" stroke:none;fill-rule:nonzero;fill:rgb(90.196078%,90.196078%,90.196078%);fill-opacity:1;" d="M 90.839844 112.644531 L 182.730469 112.644531 L 182.730469 114.058594 L 90.839844 114.058594 Z M 90.839844 112.644531 "/>
<path style=" stroke:none;fill-rule:nonzero;fill:rgb(90.196078%,90.196078%,90.196078%);fill-opacity:1;" d="M 108.730469 5.851562 L 110.03125 5.308594 L 130.824219 55.054688 L 129.523438 55.597656 Z M 108.730469 5.851562 "/>
<path style=" stroke:none;fill-rule:nonzero;fill:rgb(90.196078%,90.196078%,90.196078%);fill-opacity:1;" d="M 172.664062 16.734375 L 174.074219 16.734375 L 174.074219 55.328125 L 172.664062 55.328125 Z M 172.664062 16.734375 "/>
<path style=" stroke:none;fill-rule:nonzero;fill:rgb(42.352941%,38.823529%,100%);fill-opacity:1;" d="M 210.453125 76.753906 C 210.453125 89.410156 190.910156 118.902344 185.195312 127.25 C 184.847656 127.761719 184.265625 128.070312 183.648438 128.070312 C 183.027344 128.070312 182.449219 127.761719 182.097656 127.25 C 176.382812 118.902344 156.839844 89.410156 156.839844 76.753906 C 156.839844 61.929688 168.839844 49.914062 183.648438 49.914062 C 198.453125 49.914062 210.453125 61.929688 210.453125 76.753906 Z M 210.453125 76.753906 "/>
<path style=" stroke:none;fill-rule:nonzero;fill:rgb(100%,100%,100%);fill-opacity:1;" d="M 197.285156 74.867188 C 197.285156 82.410156 191.179688 88.523438 183.648438 88.523438 C 176.113281 88.523438 170.007812 82.410156 170.007812 74.867188 C 170.007812 67.328125 176.113281 61.214844 183.648438 61.214844 C 191.179688 61.214844 197.285156 67.328125 197.285156 74.867188 Z M 197.285156 74.867188 "/>
<path style=" stroke:none;fill-rule:nonzero;fill:rgb(90.196078%,90.196078%,90.196078%);fill-opacity:1;" d="M 131.101562 245.699219 L 182.753906 142.375 L 184.015625 143.003906 L 132.363281 246.332031 Z M 131.101562 245.699219 "/>
<path style=" stroke:none;fill-rule:nonzero;fill:rgb(100%,72.156863%,72.156863%);fill-opacity:1;" d="M 257.140625 165.101562 C 258.371094 165.765625 259.835938 165.847656 261.136719 165.328125 C 262.433594 164.808594 263.4375 163.738281 263.875 162.40625 L 280.675781 162.117188 L 275.742188 154.902344 L 260.542969 156.28125 C 258.207031 155.683594 255.796875 156.929688 254.929688 159.179688 C 254.058594 161.429688 255.011719 163.972656 257.140625 165.101562 Z M 257.140625 165.101562 "/>
<path style=" stroke:none;fill-rule:nonzero;fill:rgb(42.352941%,38.823529%,100%);fill-opacity:1;" d="M 267.226562 164.890625 C 266.703125 164.890625 266.195312 164.675781 265.835938 164.296875 C 265.472656 163.914062 265.277344 163.402344 265.300781 162.875 L 265.640625 155.160156 C 265.679688 154.210938 266.402344 153.433594 267.347656 153.328125 L 286.8125 151.09375 L 286.160156 163.949219 L 267.324219 164.890625 C 267.289062 164.890625 267.257812 164.890625 267.226562 164.890625 Z M 267.226562 164.890625 "/>
<path style=" stroke:none;fill-rule:nonzero;fill:rgb(100%,72.156863%,72.156863%);fill-opacity:1;" d="M 290.9375 270.636719 L 285.453125 272.425781 L 275.941406 252.113281 L 284.03125 249.46875 Z M 290.9375 270.636719 "/>
<path style=" stroke:none;fill-rule:nonzero;fill:rgb(18.431373%,18.039216%,25.490196%);fill-opacity:1;" d="M 294.070312 275.5 L 276.398438 281.277344 L 276.324219 281.054688 C 275.082031 277.25 277.15625 273.15625 280.953125 271.914062 L 291.75 268.386719 Z M 294.070312 275.5 "/>
<path style=" stroke:none;fill-rule:nonzero;fill:rgb(100%,72.156863%,72.156863%);fill-opacity:1;" d="M 307.078125 279.128906 L 301.3125 279.128906 L 298.570312 256.863281 L 307.082031 256.863281 Z M 307.078125 279.128906 "/>
<path style=" stroke:none;fill-rule:nonzero;fill:rgb(18.431373%,18.039216%,25.490196%);fill-opacity:1;" d="M 308.546875 284.726562 L 289.957031 284.726562 L 289.957031 284.488281 C 289.957031 280.488281 293.195312 277.246094 297.195312 277.246094 L 308.550781 277.246094 Z M 308.546875 284.726562 "/>
<path style=" stroke:none;fill-rule:nonzero;fill:rgb(18.431373%,18.039216%,25.490196%);fill-opacity:1;" d="M 298.320312 273.710938 C 297.347656 273.710938 296.523438 272.980469 296.410156 272.011719 L 288.972656 209.785156 L 278.09375 227.277344 L 290.859375 259.945312 C 291.21875 260.878906 290.808594 261.9375 289.914062 262.378906 L 279.082031 267.6875 C 278.582031 267.933594 278 267.949219 277.484375 267.734375 C 276.972656 267.515625 276.578125 267.089844 276.40625 266.558594 L 264.398438 230.253906 C 263.496094 227.519531 263.378906 224.589844 264.058594 221.789062 L 271.820312 189.90625 L 271.910156 189.855469 L 289.40625 180.257812 L 289.507812 180.296875 L 310.109375 187.824219 L 307.953125 228.707031 L 309.519531 271.132812 C 309.5625 272.183594 308.757812 273.074219 307.710938 273.132812 L 298.441406 273.707031 C 298.402344 273.710938 298.363281 273.710938 298.320312 273.710938 Z M 298.320312 273.710938 "/>
<path style=" stroke:none;fill-rule:nonzero;fill:rgb(42.352941%,38.823529%,100%);fill-opacity:1;" d="M 286.972656 202.019531 C 283.894531 202.019531 281.300781 201.144531 279.679688 198.910156 L 279.625 198.839844 L 280.675781 187.808594 L 271.335938 192.996094 C 270.941406 193.21875 270.449219 193.167969 270.105469 192.871094 C 269.765625 192.574219 269.640625 192.09375 269.800781 191.671875 L 281.445312 160.707031 L 289.132812 135.484375 C 289.914062 131.347656 293.164062 128.128906 297.300781 127.386719 C 304.148438 126.125 308.230469 128.441406 312.941406 133.574219 C 315.25 136.109375 316.257812 139.5625 315.679688 142.941406 L 311.222656 168.445312 L 312.535156 191.3125 C 312.738281 192.121094 312.402344 192.96875 311.699219 193.414062 C 308.054688 195.738281 296.882812 202.019531 286.972656 202.019531 Z M 286.972656 202.019531 "/>
<path style=" stroke:none;fill-rule:nonzero;fill:rgb(100%,72.156863%,72.156863%);fill-opacity:1;" d="M 314.105469 112 C 314.105469 118.390625 308.933594 123.566406 302.554688 123.566406 C 296.175781 123.566406 291.007812 118.390625 291.007812 112 C 291.007812 105.613281 296.175781 100.4375 302.554688 100.4375 C 308.933594 100.4375 314.105469 105.613281 314.105469 112 Z M 314.105469 112 "/>
<path style=" stroke:none;fill-rule:nonzero;fill:rgb(100%,72.156863%,72.156863%);fill-opacity:1;" d="M 305.5625 194.441406 C 306.835938 193.855469 307.785156 192.738281 308.15625 191.386719 C 308.523438 190.035156 308.277344 188.589844 307.480469 187.4375 L 317.386719 173.84375 L 308.664062 173.429688 L 300.59375 186.402344 C 298.707031 187.90625 298.246094 190.582031 299.511719 192.632812 C 300.78125 194.683594 303.378906 195.457031 305.5625 194.441406 Z M 305.5625 194.441406 "/>
<path style=" stroke:none;fill-rule:nonzero;fill:rgb(42.352941%,38.823529%,100%);fill-opacity:1;" d="M 310.929688 186.769531 C 310.445312 186.839844 309.957031 186.722656 309.554688 186.445312 L 302.996094 181.863281 C 302.179688 181.296875 301.925781 180.199219 302.417969 179.332031 L 314.09375 158.535156 L 302.351562 144.382812 C 300.667969 142.355469 300.273438 139.550781 301.332031 137.140625 C 302.386719 134.726562 304.714844 133.117188 307.34375 132.984375 C 309.972656 132.847656 312.449219 134.210938 313.746094 136.503906 L 326.714844 159.417969 C 326.898438 159.75 326.898438 160.15625 326.710938 160.484375 L 312.335938 185.8125 C 312.066406 186.285156 311.609375 186.621094 311.082031 186.742188 C 311.03125 186.753906 310.980469 186.761719 310.929688 186.769531 Z M 310.929688 186.769531 "/>
<path style=" stroke:none;fill-rule:nonzero;fill:rgb(18.431373%,18.039216%,25.490196%);fill-opacity:1;" d="M 297.9375 110.523438 C 296.796875 109.667969 295.214844 109.804688 293.859375 109.355469 C 292.21875 108.8125 290.988281 107.4375 290.636719 105.742188 C 290.28125 104.046875 290.855469 102.292969 292.144531 101.136719 C 293.609375 99.824219 295.691406 99.527344 297.640625 99.285156 C 300.308594 98.960938 303.007812 98.628906 305.6875 98.890625 C 308.367188 99.152344 311.0625 100.058594 313.019531 101.90625 C 315.179688 103.945312 316.242188 106.980469 316.246094 109.949219 C 316.171875 112.9375 315.355469 115.855469 313.867188 118.441406 C 313.40625 119.425781 312.714844 120.28125 311.847656 120.933594 C 310.949219 121.53125 309.675781 121.6875 308.808594 121.042969 C 308.058594 120.488281 307.785156 119.515625 307.449219 118.644531 C 307.105469 117.773438 306.53125 116.847656 305.605469 116.710938 C 304.417969 116.539062 303.511719 117.75 302.375 118.148438 C 300.789062 118.699219 299.023438 117.472656 298.378906 115.921875 C 297.730469 114.367188 297.902344 112.613281 298.082031 110.9375 "/>
<path style=" stroke:none;fill-rule:nonzero;fill:rgb(80%,80%,80%);fill-opacity:1;" d="M 399.753906 284.40625 C 399.753906 284.664062 399.542969 284.875 399.28125 284.875 L 0.472656 284.875 C 0.210938 284.875 0 284.664062 0 284.40625 C 0 284.144531 0.210938 283.933594 0.472656 283.933594 L 399.28125 283.933594 C 399.542969 283.933594 399.753906 284.144531 399.753906 284.40625 Z M 399.753906 284.40625 "/>
<path style=" stroke:none;fill-rule:nonzero;fill:rgb(42.352941%,38.823529%,100%);fill-opacity:1;" d="M 189.761719 141.730469 C 189.761719 145.113281 187.023438 147.851562 183.648438 147.851562 C 180.269531 147.851562 177.53125 145.113281 177.53125 141.730469 C 177.53125 138.351562 180.269531 135.609375 183.648438 135.609375 C 187.023438 135.609375 189.761719 138.351562 189.761719 141.730469 Z M 189.761719 141.730469 "/>
<path style=" stroke:none;fill-rule:nonzero;fill:rgb(94.901961%,94.901961%,94.901961%);fill-opacity:1;" d="M 269.722656 74.804688 C 267.167969 78.210938 255.957031 82.195312 252.734375 83.289062 C 252.535156 83.355469 252.316406 83.320312 252.152344 83.195312 C 251.984375 83.070312 251.890625 82.871094 251.898438 82.660156 C 252.046875 79.257812 252.734375 67.367188 255.289062 63.960938 C 258.277344 59.972656 263.933594 59.164062 267.917969 62.160156 C 271.90625 65.152344 272.710938 70.8125 269.722656 74.804688 Z M 269.722656 74.804688 "/>
<path style=" stroke:none;fill-rule:nonzero;fill:rgb(100%,100%,100%);fill-opacity:1;" d="M 267.476562 68.875 C 267.476562 71.414062 265.421875 73.472656 262.882812 73.472656 C 260.347656 73.472656 258.296875 71.414062 258.296875 68.875 C 258.296875 66.335938 260.347656 64.28125 262.882812 64.28125 C 265.421875 64.28125 267.476562 66.335938 267.476562 68.875 Z M 267.476562 68.875 "/>
<path style=" stroke:none;fill-rule:nonzero;fill:rgb(94.901961%,94.901961%,94.901961%);fill-opacity:1;" d="M 251.453125 86.871094 C 251.453125 88.011719 250.535156 88.933594 249.398438 88.933594 C 248.261719 88.933594 247.339844 88.011719 247.339844 86.871094 C 247.339844 85.734375 248.261719 84.8125 249.398438 84.8125 C 250.535156 84.8125 251.453125 85.734375 251.453125 86.871094 Z M 251.453125 86.871094 "/>
<path style=" stroke:none;fill-rule:nonzero;fill:rgb(94.901961%,94.901961%,94.901961%);fill-opacity:1;" d="M 45.9375 168.261719 C 49.695312 174.007812 49.574219 193.214844 49.460938 198.707031 C 49.453125 199.042969 49.28125 199.355469 49 199.542969 C 48.71875 199.726562 48.363281 199.757812 48.050781 199.632812 C 42.980469 197.539062 25.351562 189.960938 21.59375 184.214844 C 17.183594 177.484375 19.066406 168.449219 25.792969 164.042969 C 32.519531 159.636719 41.539062 161.523438 45.9375 168.261719 Z M 45.9375 168.261719 "/>
<path style=" stroke:none;fill-rule:nonzero;fill:rgb(100%,100%,100%);fill-opacity:1;" d="M 40.605469 175.382812 C 40.605469 179.476562 37.292969 182.792969 33.207031 182.792969 C 29.117188 182.792969 25.804688 179.476562 25.804688 175.382812 C 25.804688 171.289062 29.117188 167.972656 33.207031 167.972656 C 37.292969 167.972656 40.605469 171.289062 40.605469 175.382812 Z M 40.605469 175.382812 "/>
<path style=" stroke:none;fill-rule:nonzero;fill:rgb(94.901961%,94.901961%,94.901961%);fill-opacity:1;" d="M 56.371094 205.746094 C 56.371094 207.578125 54.886719 209.066406 53.054688 209.066406 C 51.222656 209.066406 49.734375 207.578125 49.734375 205.746094 C 49.734375 203.910156 51.222656 202.425781 53.054688 202.425781 C 54.886719 202.425781 56.371094 203.910156 56.371094 205.746094 Z M 56.371094 205.746094 "/>
</g>
</svg>
