<?xml version="1.0" encoding="UTF-8"?>
<svg xmlns="http://www.w3.org/2000/svg" xmlns:xlink="http://www.w3.org/1999/xlink" width="35pt" height="35pt" viewBox="0 0 35 35" version="1.1">
<g id="surface1">
<path style=" stroke:none;fill-rule:nonzero;fill:rgb(71.372549%,90.196078%,98.039216%);fill-opacity:1;" d="M 23.800781 12.902344 L 16.605469 12.902344 L 16.605469 9.402344 C 16.605469 8.488281 17.347656 7.746094 18.261719 7.746094 L 22.140625 7.746094 C 23.058594 7.746094 23.800781 8.488281 23.800781 9.402344 Z M 23.800781 12.902344 "/>
<path style=" stroke:none;fill-rule:nonzero;fill:rgb(54.117647%,84.705882%,96.470588%);fill-opacity:1;" d="M 18.164062 9.402344 C 18.164062 9.347656 18.207031 9.304688 18.261719 9.304688 L 23.792969 9.304688 C 23.742188 8.433594 23.023438 7.746094 22.140625 7.746094 L 18.261719 7.746094 C 17.347656 7.746094 16.605469 8.488281 16.605469 9.402344 L 16.605469 12.902344 L 18.164062 12.902344 Z M 18.164062 9.402344 "/>
<path style=" stroke:none;fill-rule:nonzero;fill:rgb(100%,85.490196%,66.666667%);fill-opacity:1;" d="M 21.84375 5.828125 C 21.84375 6.738281 21.109375 7.472656 20.203125 7.472656 C 19.292969 7.472656 18.558594 6.738281 18.558594 5.828125 C 18.558594 4.921875 19.292969 4.1875 20.203125 4.1875 C 21.109375 4.1875 21.84375 4.921875 21.84375 5.828125 Z M 21.84375 5.828125 "/>
<path style=" stroke:none;fill-rule:nonzero;fill:rgb(77.647059%,100%,96.470588%);fill-opacity:1;" d="M 33.351562 12.902344 L 23.183594 12.902344 L 23.183594 7.957031 C 23.183594 6.664062 24.234375 5.613281 25.527344 5.613281 L 31.007812 5.613281 C 32.300781 5.613281 33.351562 6.664062 33.351562 7.957031 Z M 33.351562 12.902344 "/>
<path style=" stroke:none;fill-rule:nonzero;fill:rgb(64.313725%,99.607843%,94.509804%);fill-opacity:1;" d="M 24.742188 7.957031 C 24.742188 7.523438 25.09375 7.171875 25.527344 7.171875 L 33.214844 7.171875 C 32.894531 6.265625 32.027344 5.613281 31.007812 5.613281 L 25.527344 5.613281 C 24.234375 5.613281 23.183594 6.664062 23.183594 7.957031 L 23.183594 12.902344 L 24.742188 12.902344 Z M 24.742188 7.957031 "/>
<path style=" stroke:none;fill-rule:nonzero;fill:rgb(100%,71.372549%,50.196078%);fill-opacity:1;" d="M 30.589844 2.90625 C 30.589844 4.1875 29.550781 5.230469 28.269531 5.230469 C 26.984375 5.230469 25.945312 4.1875 25.945312 2.90625 C 25.945312 1.625 26.984375 0.585938 28.269531 0.585938 C 29.550781 0.585938 30.589844 1.625 30.589844 2.90625 Z M 30.589844 2.90625 "/>
<path style=" stroke:none;fill-rule:nonzero;fill:rgb(100%,85.490196%,66.666667%);fill-opacity:1;" d="M 30.589844 2.90625 C 30.589844 4.1875 29.550781 5.230469 28.269531 5.230469 C 26.984375 5.230469 25.945312 4.1875 25.945312 2.90625 C 25.945312 1.625 26.984375 0.585938 28.269531 0.585938 C 29.550781 0.585938 30.589844 1.625 30.589844 2.90625 Z M 30.589844 2.90625 "/>
<path style=" stroke:none;fill-rule:nonzero;fill:rgb(100%,85.490196%,66.666667%);fill-opacity:1;" d="M 5.410156 19.359375 C 6.730469 16.335938 10.945312 14.464844 14.449219 15.457031 L 21.421875 14.847656 C 22.230469 14.847656 22.886719 15.503906 22.886719 16.3125 C 22.886719 16.984375 22.429688 17.570312 21.773438 17.734375 L 17.671875 18.757812 L 24.191406 21.367188 L 28.105469 21.367188 L 31.269531 18.207031 C 31.683594 17.792969 32.355469 17.792969 32.769531 18.207031 C 33.101562 18.535156 33.175781 19.042969 32.957031 19.457031 L 30.542969 23.976562 L 24.191406 25.285156 L 13.753906 25.285156 L 12.882812 34.414062 L 1.804688 34.414062 Z M 5.410156 19.359375 "/>
<path style=" stroke:none;fill-rule:nonzero;fill:rgb(100%,71.372549%,50.196078%);fill-opacity:1;" d="M 3.78125 32.859375 L 6.890625 19.867188 C 9.320312 15.8125 14.382812 16.03125 14.382812 16.03125 L 16.765625 15.253906 L 14.449219 15.457031 C 10.945312 14.464844 6.730469 16.335938 5.410156 19.359375 L 1.804688 34.414062 L 12.882812 34.414062 L 13.03125 32.859375 Z M 3.78125 32.859375 "/>
<path style=" stroke:none;fill-rule:nonzero;fill:rgb(0%,0%,0%);fill-opacity:1;" d="M 33.9375 9.238281 L 33.9375 7.957031 C 33.9375 6.34375 32.621094 5.03125 31.007812 5.03125 L 30.25 5.03125 C 30.816406 4.5 31.175781 3.742188 31.175781 2.90625 C 31.175781 1.304688 29.871094 0 28.269531 0 C 26.664062 0 25.359375 1.304688 25.359375 2.90625 C 25.359375 3.742188 25.71875 4.5 26.285156 5.03125 L 25.527344 5.03125 C 24.164062 5.03125 23.015625 5.96875 22.691406 7.230469 C 22.515625 7.1875 22.332031 7.160156 22.140625 7.160156 L 21.988281 7.160156 C 22.265625 6.789062 22.429688 6.328125 22.429688 5.828125 C 22.429688 4.601562 21.429688 3.601562 20.203125 3.601562 C 18.972656 3.601562 17.972656 4.601562 17.972656 5.828125 C 17.972656 6.328125 18.140625 6.789062 18.417969 7.160156 L 18.261719 7.160156 C 17.027344 7.160156 16.019531 8.167969 16.019531 9.402344 L 16.019531 13.488281 L 33.9375 13.488281 L 33.9375 10.429688 L 32.765625 10.429688 L 32.765625 12.320312 L 23.769531 12.320312 L 23.769531 7.957031 C 23.769531 6.988281 24.558594 6.199219 25.527344 6.199219 L 31.007812 6.199219 C 31.976562 6.199219 32.765625 6.988281 32.765625 7.957031 L 32.765625 9.238281 Z M 28.269531 1.167969 C 29.226562 1.167969 30.007812 1.949219 30.007812 2.90625 C 30.007812 3.863281 29.226562 4.644531 28.269531 4.644531 C 27.308594 4.644531 26.53125 3.863281 26.53125 2.90625 C 26.53125 1.949219 27.308594 1.167969 28.269531 1.167969 Z M 20.203125 4.769531 C 20.785156 4.769531 21.261719 5.246094 21.261719 5.828125 C 21.261719 6.414062 20.785156 6.890625 20.203125 6.890625 C 19.617188 6.890625 19.144531 6.414062 19.144531 5.828125 C 19.144531 5.246094 19.617188 4.769531 20.203125 4.769531 Z M 17.1875 12.320312 L 17.1875 9.402344 C 17.1875 8.8125 17.671875 8.332031 18.261719 8.332031 L 22.140625 8.332031 C 22.304688 8.332031 22.460938 8.367188 22.597656 8.433594 L 22.597656 12.320312 Z M 17.1875 12.320312 "/>
<path style=" stroke:none;fill-rule:nonzero;fill:rgb(0%,0%,0%);fill-opacity:1;" d="M 30.859375 17.792969 L 27.863281 20.78125 L 24.304688 20.78125 L 19.566406 18.886719 L 21.917969 18.300781 C 22.832031 18.074219 23.46875 17.253906 23.46875 16.3125 C 23.46875 15.183594 22.550781 14.261719 21.421875 14.261719 L 21.394531 14.261719 L 14.503906 14.867188 C 10.785156 13.875 6.308594 15.84375 4.875 19.125 L 4.855469 19.171875 L 1.0625 35 L 9.992188 35 L 9.992188 33.832031 L 2.546875 33.832031 L 5.96875 19.546875 C 7.195312 16.808594 11.148438 15.128906 14.289062 16.019531 L 14.390625 16.050781 L 21.445312 15.433594 C 21.917969 15.445312 22.300781 15.835938 22.300781 16.3125 C 22.300781 16.71875 22.027344 17.070312 21.632812 17.167969 L 17.53125 18.191406 L 17.453125 19.300781 L 24.078125 21.949219 L 28.347656 21.949219 L 31.683594 18.621094 C 31.871094 18.433594 32.171875 18.433594 32.355469 18.621094 C 32.503906 18.769531 32.539062 18.996094 32.441406 19.179688 L 30.15625 23.460938 L 24.132812 24.703125 L 13.222656 24.703125 L 12.351562 33.832031 L 11.152344 33.832031 L 11.152344 35 L 13.414062 35 L 14.28125 25.871094 L 24.25 25.871094 L 30.929688 24.492188 L 33.46875 19.730469 C 33.8125 19.085938 33.699219 18.308594 33.183594 17.792969 C 32.542969 17.152344 31.5 17.152344 30.859375 17.792969 Z M 30.859375 17.792969 "/>
</g>
</svg>
